<?xml version="1.0" encoding="UTF-8"?>
<svg id="Layer_2" data-name="Layer 2" xmlns="http://www.w3.org/2000/svg" viewBox="0 0 688.18 323.94">
  <defs>
    <style>
      .cls-1 {
        fill: #fff;
        stroke-width: 0px;
      }
    </style>
  </defs>
  <g id="Layer_1-2" data-name="Layer 1">
    <g>
      <path class="cls-1" d="m50.84,118.48L0,0h41.35l27.21,71.09L95.36,0h34.18l26.58,71.09L183.54,0h40.51l-50.84,118.48h-34.39l-26.79-72.1-26.79,72.1h-34.39Z"/>
      <path class="cls-1" d="m319.2,113.91c-9.7,4.23-22.78,6.94-40.51,6.94-37.55,0-60.13-18.28-60.13-45.02s22.57-44.34,54.64-44.34,52.53,16.76,52.53,44.34c0,2.54-.42,6.43-.63,8.12h-68.56c2.95,7.28,12.45,11.17,27.43,11.17,12.03,0,22.78-2.03,35.23-7.11v25.9Zm-29.75-47.56c-.84-6.94-7.38-11.17-16.24-11.17s-15.82,4.4-17.51,11.17h33.75Z"/>
      <path class="cls-1" d="m52.11,248.46l42.4-45.36h46.83l-55.7,56.36,59.49,62.12h-49.79l-43.25-48.07v48.07H12.24v-118.48h39.87v45.36Z"/>
      <path class="cls-1" d="m195.78,203.1v118.48h-38.61v-118.48h38.61Z"/>
      <path class="cls-1" d="m313.92,317c-9.7,4.23-22.78,6.94-40.51,6.94-37.55,0-60.13-18.28-60.13-45.02s22.57-44.34,54.64-44.34,52.53,16.76,52.53,44.34c0,2.54-.42,6.43-.63,8.12h-68.56c2.95,7.28,12.45,11.17,27.43,11.17,12.03,0,22.78-2.03,35.23-7.11v25.9Zm-29.75-47.56c-.84-6.94-7.38-11.17-16.24-11.17s-15.82,4.4-17.51,11.17h33.75Z"/>
      <path class="cls-1" d="m323.63,236.95h40.72l20.46,47.05,20.46-47.05h39.45l-42.41,84.62h-36.29l-42.4-84.62Z"/>
      <path class="cls-1" d="m547.89,317c-9.71,4.23-22.79,6.94-40.51,6.94-37.55,0-60.13-18.28-60.13-45.02s22.57-44.34,54.64-44.34,52.53,16.76,52.53,44.34c0,2.54-.42,6.43-.63,8.12h-68.57c2.95,7.28,12.45,11.17,27.43,11.17,12.02,0,22.78-2.03,35.23-7.11v25.9Zm-29.75-47.56c-.84-6.94-7.38-11.17-16.24-11.17s-15.82,4.4-17.51,11.17h33.75Z"/>
      <path class="cls-1" d="m643.24,267.41c-2.74-.85-6.12-1.18-9.28-1.18-16.03,0-25.11,8.8-25.11,24.54v30.8h-38.4v-84.62h38.18v13.37c5.7-9.82,15.4-15.4,28.9-15.4,2.32,0,4.64.34,5.7.68v31.82Z"/>
      <path class="cls-1" d="m665.82,323.94c-12.24,0-22.36-8.12-22.36-17.77s10.13-17.77,22.36-17.77,22.36,8.12,22.36,17.77-9.92,17.77-22.36,17.77Z"/>
    </g>
  </g>
</svg>